# xmcd
#
# Track frame offsets: 
#        150
#        19130
#        32996
#        45130
#        60219
#        82766
#        103846
#        120738
#        137740
#        151083
#
# Disc length: 2255 seconds
#
# Revision: 0
# Processed by: cddbd v1.5.2PL0 Copyright (c) Steve Scherf et al.
# Submitted via: ExactAudioCopyFreeDBPlugin 1.0
#
DISCID=6d08cd0a
DTITLE=Ronnie Milsap - Milsap Magic
DYEAR=1980
DGENRE=Country
TTITLE0=Why Don't You Spend The Night
TTITLE1=She Thinks I Still Care
TTITLE2=My Heart
TTITLE3=Silent Night (After The Fight)
TTITLE4=It's A Beautiful Thing
TTITLE5=Misery Loves Company
TTITLE6=I Let Myself Believe
TTITLE7=If You Don't Want Me To
TTITLE8=What's One More Time
TTITLE9=Still In Love With You
EXTD=
EXTT0=
EXTT1=
EXTT2=
EXTT3=
EXTT4=
EXTT5=
EXTT6=
EXTT7=
EXTT8=
EXTT9=
PLAYORDER=
